<svg version="1.1" id="Layer_1" xmlns="http://www.w3.org/2000/svg" xmlns:xlink="http://www.w3.org/1999/xlink" x="0px" y="0px"
  viewBox="0 0 237.8 294.9" style="enable-background:new 0 0 237.8 294.9;" xml:space="preserve">
  <path d="M156.2,92c7.1-2.1,13.8-5,20.9-6.7c9-2.2,18-3.3,27.1-0.6c11,3.3,17.8,10.5,19.7,21.7c1.9,11.2-2.5,19.8-12.5,25.5
    c-6.4,3.7-6.3,3.9-2.5,10.3c6.5,10.9,6.1,20.6-1.2,29.6c-7,8.7-18.9,12.1-29.8,8.5c-6.9-2.2-13-5.8-19.2-10.5
    c-0.6,2.7,0.9,4.2,1.6,5.8c13.7,30.3,13.7,61.3,4.4,92.7c-2.8,9.3-8.5,12.8-17.2,11.8c-5.5-0.6-6.6-2.7-3.5-7.1
    c19-27.5,18.1-56.8,8.3-87c-0.1-0.3-0.4-0.6-1.1-1.6c-0.1,5.1-0.3,9.5-1.1,13.7c-2.9,14.2-13.9,22.9-28.3,22.3
    c-8.8-0.4-14.8-5-19.2-12.5c-3.9-6.7-4.3-6.8-10.7-2.7c-9.3,6-18.6,6.3-27.6,0c-9.5-6.6-13.4-16-11.2-27.4
    c2.9-14.9,12.7-25.3,23.5-35c1.1-1,2.3-1.9,3.4-2.9c0.2-0.2,0.1-0.5,0.3-1.2c-9,3.3-17.8,7-27.3,8.1c-12,1.4-23.4,0.4-32.4-9
    c-11.5-12.1-8.9-30.4,5.3-39c6.8-4.1,6.9-4.3,2.8-11.1c-6.1-10.3-5.8-19.7,1.1-28.8c6.1-8.1,17.9-12,28.3-9.2
    C72.6,53.6,83,63,92.3,74c1.1,1.3,2.1,2.5,3.9,3.5c-1-2.5-2.1-4.9-3.1-7.4c-4.4-11.5-7.3-23.1-5.6-35.6c2-14.9,13.9-25.2,28.5-24.5
    c9.5,0.5,15.6,5.7,20.1,13.6c3,5.2,4.2,5.4,9,2.4c11.3-7,20.2-7,29.6,0c9.1,6.8,12.7,18.3,9.4,30c-3.7,12.8-12.3,22.3-21.9,31
    C160.3,88.7,158.2,90.3,156.2,92z"/>
  </svg>